%TF.GenerationSoftware,KiCad,Pcbnew,9.0.5*%
%TF.CreationDate,2025-11-12T20:54:18+08:00*%
%TF.ProjectId,Hackpad Project,4861636b-7061-4642-9050-726f6a656374,rev?*%
%TF.SameCoordinates,Original*%
%TF.FileFunction,Soldermask,Top*%
%TF.FilePolarity,Negative*%
%FSLAX46Y46*%
G04 Gerber Fmt 4.6, Leading zero omitted, Abs format (unit mm)*
G04 Created by KiCad (PCBNEW 9.0.5) date 2025-11-12 20:54:18*
%MOMM*%
%LPD*%
G01*
G04 APERTURE LIST*
G04 Aperture macros list*
%AMRoundRect*
0 Rectangle with rounded corners*
0 $1 Rounding radius*
0 $2 $3 $4 $5 $6 $7 $8 $9 X,Y pos of 4 corners*
0 Add a 4 corners polygon primitive as box body*
4,1,4,$2,$3,$4,$5,$6,$7,$8,$9,$2,$3,0*
0 Add four circle primitives for the rounded corners*
1,1,$1+$1,$2,$3*
1,1,$1+$1,$4,$5*
1,1,$1+$1,$6,$7*
1,1,$1+$1,$8,$9*
0 Add four rect primitives between the rounded corners*
20,1,$1+$1,$2,$3,$4,$5,0*
20,1,$1+$1,$4,$5,$6,$7,0*
20,1,$1+$1,$6,$7,$8,$9,0*
20,1,$1+$1,$8,$9,$2,$3,0*%
G04 Aperture macros list end*
%ADD10RoundRect,0.152400X1.063600X0.609600X-1.063600X0.609600X-1.063600X-0.609600X1.063600X-0.609600X0*%
%ADD11C,1.524000*%
%ADD12RoundRect,0.152400X-1.063600X-0.609600X1.063600X-0.609600X1.063600X0.609600X-1.063600X0.609600X0*%
%ADD13C,1.700000*%
%ADD14C,4.000000*%
%ADD15C,2.200000*%
%ADD16R,2.000000X2.000000*%
%ADD17C,2.000000*%
%ADD18R,3.200000X2.000000*%
%ADD19R,1.600000X0.850000*%
G04 APERTURE END LIST*
D10*
%TO.C,U1*%
X122355000Y-54610000D03*
D11*
X123190000Y-54610000D03*
D10*
X122355000Y-57150000D03*
D11*
X123190000Y-57150000D03*
D10*
X122355000Y-59690000D03*
D11*
X123190000Y-59690000D03*
D10*
X122355000Y-62230000D03*
D11*
X123190000Y-62230000D03*
D10*
X122355000Y-64770000D03*
D11*
X123190000Y-64770000D03*
D10*
X122355000Y-67310000D03*
D11*
X123190000Y-67310000D03*
D10*
X122355000Y-69850000D03*
D11*
X123190000Y-69850000D03*
X138430000Y-69850000D03*
D12*
X139265000Y-69850000D03*
D11*
X138430000Y-67310000D03*
D12*
X139265000Y-67310000D03*
D11*
X138430000Y-64770000D03*
D12*
X139265000Y-64770000D03*
D11*
X138430000Y-62230000D03*
D12*
X139265000Y-62230000D03*
D11*
X138430000Y-59690000D03*
D12*
X139265000Y-59690000D03*
D11*
X138430000Y-57150000D03*
D12*
X139265000Y-57150000D03*
D11*
X138430000Y-54610000D03*
D12*
X139265000Y-54610000D03*
%TD*%
D13*
%TO.C,SW2*%
X128270000Y-85090000D03*
D14*
X133350000Y-85090000D03*
D13*
X138430000Y-85090000D03*
D15*
X135890000Y-80010000D03*
X129540000Y-82550000D03*
%TD*%
D16*
%TO.C,SW5*%
X101970000Y-82590000D03*
D17*
X101970000Y-87590000D03*
X101970000Y-85090000D03*
D18*
X109470000Y-79490000D03*
X109470000Y-90690000D03*
D17*
X116470000Y-87590000D03*
X116470000Y-82590000D03*
%TD*%
D13*
%TO.C,SW4*%
X80010000Y-85090000D03*
D14*
X85090000Y-85090000D03*
D13*
X90170000Y-85090000D03*
D15*
X87630000Y-80010000D03*
X81280000Y-82550000D03*
%TD*%
D13*
%TO.C,SW1*%
X104140000Y-62230000D03*
D14*
X109220000Y-62230000D03*
D13*
X114300000Y-62230000D03*
D15*
X111760000Y-57150000D03*
X105410000Y-59690000D03*
%TD*%
D13*
%TO.C,SW3*%
X104140000Y-107950000D03*
D14*
X109220000Y-107950000D03*
D13*
X114300000Y-107950000D03*
D15*
X111760000Y-102870000D03*
X105410000Y-105410000D03*
%TD*%
D19*
%TO.C,D2*%
X115090000Y-74055000D03*
X115090000Y-75805000D03*
X118590000Y-75805000D03*
X118590000Y-74055000D03*
%TD*%
%TO.C,D1*%
X99850000Y-74055000D03*
X99850000Y-75805000D03*
X103350000Y-75805000D03*
X103350000Y-74055000D03*
%TD*%
M02*
