%TF.GenerationSoftware,KiCad,Pcbnew,9.0.5*%
%TF.CreationDate,2025-11-12T20:54:18+08:00*%
%TF.ProjectId,Hackpad Project,4861636b-7061-4642-9050-726f6a656374,rev?*%
%TF.SameCoordinates,Original*%
%TF.FileFunction,Soldermask,Bot*%
%TF.FilePolarity,Negative*%
%FSLAX46Y46*%
G04 Gerber Fmt 4.6, Leading zero omitted, Abs format (unit mm)*
G04 Created by KiCad (PCBNEW 9.0.5) date 2025-11-12 20:54:18*
%MOMM*%
%LPD*%
G01*
G04 APERTURE LIST*
%ADD10C,1.524000*%
%ADD11C,1.700000*%
%ADD12C,4.000000*%
%ADD13C,2.200000*%
%ADD14R,2.000000X2.000000*%
%ADD15C,2.000000*%
%ADD16R,3.200000X2.000000*%
G04 APERTURE END LIST*
D10*
%TO.C,U1*%
X123190000Y-54610000D03*
X123190000Y-57150000D03*
X123190000Y-59690000D03*
X123190000Y-62230000D03*
X123190000Y-64770000D03*
X123190000Y-67310000D03*
X123190000Y-69850000D03*
X138430000Y-69850000D03*
X138430000Y-67310000D03*
X138430000Y-64770000D03*
X138430000Y-62230000D03*
X138430000Y-59690000D03*
X138430000Y-57150000D03*
X138430000Y-54610000D03*
%TD*%
D11*
%TO.C,SW2*%
X128270000Y-85090000D03*
D12*
X133350000Y-85090000D03*
D11*
X138430000Y-85090000D03*
D13*
X135890000Y-80010000D03*
X129540000Y-82550000D03*
%TD*%
D14*
%TO.C,SW5*%
X101970000Y-82590000D03*
D15*
X101970000Y-87590000D03*
X101970000Y-85090000D03*
D16*
X109470000Y-79490000D03*
X109470000Y-90690000D03*
D15*
X116470000Y-87590000D03*
X116470000Y-82590000D03*
%TD*%
D11*
%TO.C,SW4*%
X80010000Y-85090000D03*
D12*
X85090000Y-85090000D03*
D11*
X90170000Y-85090000D03*
D13*
X87630000Y-80010000D03*
X81280000Y-82550000D03*
%TD*%
D11*
%TO.C,SW1*%
X104140000Y-62230000D03*
D12*
X109220000Y-62230000D03*
D11*
X114300000Y-62230000D03*
D13*
X111760000Y-57150000D03*
X105410000Y-59690000D03*
%TD*%
D11*
%TO.C,SW3*%
X104140000Y-107950000D03*
D12*
X109220000Y-107950000D03*
D11*
X114300000Y-107950000D03*
D13*
X111760000Y-102870000D03*
X105410000Y-105410000D03*
%TD*%
M02*
