M48
; DRILL file {KiCad 9.0.5} date 2025-11-19T17:56:48+0800
; FORMAT={-:-/ absolute / metric / decimal}
; #@! TF.CreationDate,2025-11-19T17:56:48+08:00
; #@! TF.GenerationSoftware,Kicad,Pcbnew,9.0.5
; #@! TF.FileFunction,Plated,1,2,PTH
FMAT,2
METRIC
; #@! TA.AperFunction,Plated,PTH,ViaDrill
T1C0.300
; #@! TA.AperFunction,Plated,PTH,ComponentDrill
T2C0.889
; #@! TA.AperFunction,Plated,PTH,ComponentDrill
T3C1.000
; #@! TA.AperFunction,Plated,PTH,ComponentDrill
T4C1.500
%
G90
G05
T1
X100.33Y-74.88
X107.95Y-67.31
X110.49Y-66.04
X110.49Y-71.12
X113.03Y-64.77
X116.84Y-76.2
X119.38Y-69.85
X119.38Y-72.39
X135.89Y-59.69
T2
X123.19Y-54.61
X123.19Y-57.15
X123.19Y-59.69
X123.19Y-62.23
X123.19Y-64.77
X123.19Y-67.31
X123.19Y-69.85
X138.43Y-54.61
X138.43Y-57.15
X138.43Y-59.69
X138.43Y-62.23
X138.43Y-64.77
X138.43Y-67.31
X138.43Y-69.85
T3
X101.97Y-82.59
X101.97Y-85.09
X101.97Y-87.59
X116.47Y-82.59
X116.47Y-87.59
T4
X81.28Y-82.55
X87.63Y-80.01
X105.41Y-59.69
X105.41Y-105.41
X111.76Y-57.15
X111.76Y-102.87
X129.54Y-82.55
X135.89Y-80.01
T4
G00X108.82Y-79.49
M15
G01X110.12Y-79.49
M16
G05
G00X108.82Y-90.69
M15
G01X110.12Y-90.69
M16
G05
M30
