%TF.GenerationSoftware,KiCad,Pcbnew,9.0.5*%
%TF.CreationDate,2025-11-12T20:54:18+08:00*%
%TF.ProjectId,Hackpad Project,4861636b-7061-4642-9050-726f6a656374,rev?*%
%TF.SameCoordinates,Original*%
%TF.FileFunction,Legend,Bot*%
%TF.FilePolarity,Positive*%
%FSLAX46Y46*%
G04 Gerber Fmt 4.6, Leading zero omitted, Abs format (unit mm)*
G04 Created by KiCad (PCBNEW 9.0.5) date 2025-11-12 20:54:18*
%MOMM*%
%LPD*%
G01*
G04 APERTURE LIST*
%ADD10C,0.100000*%
G04 APERTURE END LIST*
D10*
X115326115Y-124862419D02*
X115326115Y-124195752D01*
X115326115Y-124290990D02*
X115278496Y-124243371D01*
X115278496Y-124243371D02*
X115183258Y-124195752D01*
X115183258Y-124195752D02*
X115040401Y-124195752D01*
X115040401Y-124195752D02*
X114945163Y-124243371D01*
X114945163Y-124243371D02*
X114897544Y-124338609D01*
X114897544Y-124338609D02*
X114897544Y-124862419D01*
X114897544Y-124338609D02*
X114849925Y-124243371D01*
X114849925Y-124243371D02*
X114754687Y-124195752D01*
X114754687Y-124195752D02*
X114611830Y-124195752D01*
X114611830Y-124195752D02*
X114516591Y-124243371D01*
X114516591Y-124243371D02*
X114468972Y-124338609D01*
X114468972Y-124338609D02*
X114468972Y-124862419D01*
X113564211Y-124862419D02*
X113564211Y-124338609D01*
X113564211Y-124338609D02*
X113611830Y-124243371D01*
X113611830Y-124243371D02*
X113707068Y-124195752D01*
X113707068Y-124195752D02*
X113897544Y-124195752D01*
X113897544Y-124195752D02*
X113992782Y-124243371D01*
X113564211Y-124814800D02*
X113659449Y-124862419D01*
X113659449Y-124862419D02*
X113897544Y-124862419D01*
X113897544Y-124862419D02*
X113992782Y-124814800D01*
X113992782Y-124814800D02*
X114040401Y-124719561D01*
X114040401Y-124719561D02*
X114040401Y-124624323D01*
X114040401Y-124624323D02*
X113992782Y-124529085D01*
X113992782Y-124529085D02*
X113897544Y-124481466D01*
X113897544Y-124481466D02*
X113659449Y-124481466D01*
X113659449Y-124481466D02*
X113564211Y-124433847D01*
X112659449Y-124814800D02*
X112754687Y-124862419D01*
X112754687Y-124862419D02*
X112945163Y-124862419D01*
X112945163Y-124862419D02*
X113040401Y-124814800D01*
X113040401Y-124814800D02*
X113088020Y-124767180D01*
X113088020Y-124767180D02*
X113135639Y-124671942D01*
X113135639Y-124671942D02*
X113135639Y-124386228D01*
X113135639Y-124386228D02*
X113088020Y-124290990D01*
X113088020Y-124290990D02*
X113040401Y-124243371D01*
X113040401Y-124243371D02*
X112945163Y-124195752D01*
X112945163Y-124195752D02*
X112754687Y-124195752D01*
X112754687Y-124195752D02*
X112659449Y-124243371D01*
X112230877Y-124862419D02*
X112230877Y-124195752D01*
X112230877Y-124386228D02*
X112183258Y-124290990D01*
X112183258Y-124290990D02*
X112135639Y-124243371D01*
X112135639Y-124243371D02*
X112040401Y-124195752D01*
X112040401Y-124195752D02*
X111945163Y-124195752D01*
X111468972Y-124862419D02*
X111564210Y-124814800D01*
X111564210Y-124814800D02*
X111611829Y-124767180D01*
X111611829Y-124767180D02*
X111659448Y-124671942D01*
X111659448Y-124671942D02*
X111659448Y-124386228D01*
X111659448Y-124386228D02*
X111611829Y-124290990D01*
X111611829Y-124290990D02*
X111564210Y-124243371D01*
X111564210Y-124243371D02*
X111468972Y-124195752D01*
X111468972Y-124195752D02*
X111326115Y-124195752D01*
X111326115Y-124195752D02*
X111230877Y-124243371D01*
X111230877Y-124243371D02*
X111183258Y-124290990D01*
X111183258Y-124290990D02*
X111135639Y-124386228D01*
X111135639Y-124386228D02*
X111135639Y-124671942D01*
X111135639Y-124671942D02*
X111183258Y-124767180D01*
X111183258Y-124767180D02*
X111230877Y-124814800D01*
X111230877Y-124814800D02*
X111326115Y-124862419D01*
X111326115Y-124862419D02*
X111468972Y-124862419D01*
X110707067Y-124195752D02*
X110707067Y-125195752D01*
X110707067Y-124243371D02*
X110611829Y-124195752D01*
X110611829Y-124195752D02*
X110421353Y-124195752D01*
X110421353Y-124195752D02*
X110326115Y-124243371D01*
X110326115Y-124243371D02*
X110278496Y-124290990D01*
X110278496Y-124290990D02*
X110230877Y-124386228D01*
X110230877Y-124386228D02*
X110230877Y-124671942D01*
X110230877Y-124671942D02*
X110278496Y-124767180D01*
X110278496Y-124767180D02*
X110326115Y-124814800D01*
X110326115Y-124814800D02*
X110421353Y-124862419D01*
X110421353Y-124862419D02*
X110611829Y-124862419D01*
X110611829Y-124862419D02*
X110707067Y-124814800D01*
X109373734Y-124862419D02*
X109373734Y-124338609D01*
X109373734Y-124338609D02*
X109421353Y-124243371D01*
X109421353Y-124243371D02*
X109516591Y-124195752D01*
X109516591Y-124195752D02*
X109707067Y-124195752D01*
X109707067Y-124195752D02*
X109802305Y-124243371D01*
X109373734Y-124814800D02*
X109468972Y-124862419D01*
X109468972Y-124862419D02*
X109707067Y-124862419D01*
X109707067Y-124862419D02*
X109802305Y-124814800D01*
X109802305Y-124814800D02*
X109849924Y-124719561D01*
X109849924Y-124719561D02*
X109849924Y-124624323D01*
X109849924Y-124624323D02*
X109802305Y-124529085D01*
X109802305Y-124529085D02*
X109707067Y-124481466D01*
X109707067Y-124481466D02*
X109468972Y-124481466D01*
X109468972Y-124481466D02*
X109373734Y-124433847D01*
X108468972Y-124862419D02*
X108468972Y-123862419D01*
X108468972Y-124814800D02*
X108564210Y-124862419D01*
X108564210Y-124862419D02*
X108754686Y-124862419D01*
X108754686Y-124862419D02*
X108849924Y-124814800D01*
X108849924Y-124814800D02*
X108897543Y-124767180D01*
X108897543Y-124767180D02*
X108945162Y-124671942D01*
X108945162Y-124671942D02*
X108945162Y-124386228D01*
X108945162Y-124386228D02*
X108897543Y-124290990D01*
X108897543Y-124290990D02*
X108849924Y-124243371D01*
X108849924Y-124243371D02*
X108754686Y-124195752D01*
X108754686Y-124195752D02*
X108564210Y-124195752D01*
X108564210Y-124195752D02*
X108468972Y-124243371D01*
X107230876Y-124862419D02*
X107230876Y-123862419D01*
X107230876Y-124243371D02*
X107135638Y-124195752D01*
X107135638Y-124195752D02*
X106945162Y-124195752D01*
X106945162Y-124195752D02*
X106849924Y-124243371D01*
X106849924Y-124243371D02*
X106802305Y-124290990D01*
X106802305Y-124290990D02*
X106754686Y-124386228D01*
X106754686Y-124386228D02*
X106754686Y-124671942D01*
X106754686Y-124671942D02*
X106802305Y-124767180D01*
X106802305Y-124767180D02*
X106849924Y-124814800D01*
X106849924Y-124814800D02*
X106945162Y-124862419D01*
X106945162Y-124862419D02*
X107135638Y-124862419D01*
X107135638Y-124862419D02*
X107230876Y-124814800D01*
X106183257Y-124862419D02*
X106278495Y-124814800D01*
X106278495Y-124814800D02*
X106326114Y-124767180D01*
X106326114Y-124767180D02*
X106373733Y-124671942D01*
X106373733Y-124671942D02*
X106373733Y-124386228D01*
X106373733Y-124386228D02*
X106326114Y-124290990D01*
X106326114Y-124290990D02*
X106278495Y-124243371D01*
X106278495Y-124243371D02*
X106183257Y-124195752D01*
X106183257Y-124195752D02*
X106040400Y-124195752D01*
X106040400Y-124195752D02*
X105945162Y-124243371D01*
X105945162Y-124243371D02*
X105897543Y-124290990D01*
X105897543Y-124290990D02*
X105849924Y-124386228D01*
X105849924Y-124386228D02*
X105849924Y-124671942D01*
X105849924Y-124671942D02*
X105897543Y-124767180D01*
X105897543Y-124767180D02*
X105945162Y-124814800D01*
X105945162Y-124814800D02*
X106040400Y-124862419D01*
X106040400Y-124862419D02*
X106183257Y-124862419D01*
X104992781Y-124862419D02*
X104992781Y-124338609D01*
X104992781Y-124338609D02*
X105040400Y-124243371D01*
X105040400Y-124243371D02*
X105135638Y-124195752D01*
X105135638Y-124195752D02*
X105326114Y-124195752D01*
X105326114Y-124195752D02*
X105421352Y-124243371D01*
X104992781Y-124814800D02*
X105088019Y-124862419D01*
X105088019Y-124862419D02*
X105326114Y-124862419D01*
X105326114Y-124862419D02*
X105421352Y-124814800D01*
X105421352Y-124814800D02*
X105468971Y-124719561D01*
X105468971Y-124719561D02*
X105468971Y-124624323D01*
X105468971Y-124624323D02*
X105421352Y-124529085D01*
X105421352Y-124529085D02*
X105326114Y-124481466D01*
X105326114Y-124481466D02*
X105088019Y-124481466D01*
X105088019Y-124481466D02*
X104992781Y-124433847D01*
X104516590Y-124862419D02*
X104516590Y-124195752D01*
X104516590Y-124386228D02*
X104468971Y-124290990D01*
X104468971Y-124290990D02*
X104421352Y-124243371D01*
X104421352Y-124243371D02*
X104326114Y-124195752D01*
X104326114Y-124195752D02*
X104230876Y-124195752D01*
X103468971Y-124862419D02*
X103468971Y-123862419D01*
X103468971Y-124814800D02*
X103564209Y-124862419D01*
X103564209Y-124862419D02*
X103754685Y-124862419D01*
X103754685Y-124862419D02*
X103849923Y-124814800D01*
X103849923Y-124814800D02*
X103897542Y-124767180D01*
X103897542Y-124767180D02*
X103945161Y-124671942D01*
X103945161Y-124671942D02*
X103945161Y-124386228D01*
X103945161Y-124386228D02*
X103897542Y-124290990D01*
X103897542Y-124290990D02*
X103849923Y-124243371D01*
X103849923Y-124243371D02*
X103754685Y-124195752D01*
X103754685Y-124195752D02*
X103564209Y-124195752D01*
X103564209Y-124195752D02*
X103468971Y-124243371D01*
M02*
