%TF.GenerationSoftware,KiCad,Pcbnew,9.0.5*%
%TF.CreationDate,2025-11-12T20:54:18+08:00*%
%TF.ProjectId,Hackpad Project,4861636b-7061-4642-9050-726f6a656374,rev?*%
%TF.SameCoordinates,Original*%
%TF.FileFunction,Copper,L1,Top*%
%TF.FilePolarity,Positive*%
%FSLAX46Y46*%
G04 Gerber Fmt 4.6, Leading zero omitted, Abs format (unit mm)*
G04 Created by KiCad (PCBNEW 9.0.5) date 2025-11-12 20:54:18*
%MOMM*%
%LPD*%
G01*
G04 APERTURE LIST*
G04 Aperture macros list*
%AMRoundRect*
0 Rectangle with rounded corners*
0 $1 Rounding radius*
0 $2 $3 $4 $5 $6 $7 $8 $9 X,Y pos of 4 corners*
0 Add a 4 corners polygon primitive as box body*
4,1,4,$2,$3,$4,$5,$6,$7,$8,$9,$2,$3,0*
0 Add four circle primitives for the rounded corners*
1,1,$1+$1,$2,$3*
1,1,$1+$1,$4,$5*
1,1,$1+$1,$6,$7*
1,1,$1+$1,$8,$9*
0 Add four rect primitives between the rounded corners*
20,1,$1+$1,$2,$3,$4,$5,0*
20,1,$1+$1,$4,$5,$6,$7,0*
20,1,$1+$1,$6,$7,$8,$9,0*
20,1,$1+$1,$8,$9,$2,$3,0*%
G04 Aperture macros list end*
%TA.AperFunction,SMDPad,CuDef*%
%ADD10RoundRect,0.152400X1.063600X0.609600X-1.063600X0.609600X-1.063600X-0.609600X1.063600X-0.609600X0*%
%TD*%
%TA.AperFunction,ComponentPad*%
%ADD11C,1.524000*%
%TD*%
%TA.AperFunction,SMDPad,CuDef*%
%ADD12RoundRect,0.152400X-1.063600X-0.609600X1.063600X-0.609600X1.063600X0.609600X-1.063600X0.609600X0*%
%TD*%
%TA.AperFunction,ComponentPad*%
%ADD13C,2.200000*%
%TD*%
%TA.AperFunction,ComponentPad*%
%ADD14R,2.000000X2.000000*%
%TD*%
%TA.AperFunction,ComponentPad*%
%ADD15C,2.000000*%
%TD*%
%TA.AperFunction,ComponentPad*%
%ADD16R,3.200000X2.000000*%
%TD*%
%TA.AperFunction,SMDPad,CuDef*%
%ADD17R,1.600000X0.850000*%
%TD*%
%TA.AperFunction,ViaPad*%
%ADD18C,0.600000*%
%TD*%
%TA.AperFunction,Conductor*%
%ADD19C,0.200000*%
%TD*%
G04 APERTURE END LIST*
D10*
%TO.P,U1,1,GPIO26/ADC0/A0*%
%TO.N,unconnected-(U1-GPIO26{slash}ADC0{slash}A0-Pad1)*%
X122355000Y-54610000D03*
D11*
X123190000Y-54610000D03*
D10*
%TO.P,U1,2,GPIO27/ADC1/A1*%
%TO.N,Net-(U1-GPIO27{slash}ADC1{slash}A1)*%
X122355000Y-57150000D03*
D11*
X123190000Y-57150000D03*
D10*
%TO.P,U1,3,GPIO28/ADC2/A2*%
%TO.N,Net-(U1-GPIO28{slash}ADC2{slash}A2)*%
X122355000Y-59690000D03*
D11*
X123190000Y-59690000D03*
D10*
%TO.P,U1,4,GPIO29/ADC3/A3*%
%TO.N,Net-(U1-GPIO29{slash}ADC3{slash}A3)*%
X122355000Y-62230000D03*
D11*
X123190000Y-62230000D03*
D10*
%TO.P,U1,5,GPIO6/SDA*%
%TO.N,Net-(D1-DIN)*%
X122355000Y-64770000D03*
D11*
X123190000Y-64770000D03*
D10*
%TO.P,U1,6,GPIO7/SCL*%
%TO.N,unconnected-(U1-GPIO7{slash}SCL-Pad6)*%
X122355000Y-67310000D03*
D11*
X123190000Y-67310000D03*
D10*
%TO.P,U1,7,GPIO0/TX*%
%TO.N,unconnected-(U1-GPIO0{slash}TX-Pad7)*%
X122355000Y-69850000D03*
D11*
X123190000Y-69850000D03*
%TO.P,U1,8,GPIO1/RX*%
%TO.N,Net-(U1-GPIO1{slash}RX)*%
X138430000Y-69850000D03*
D12*
X139265000Y-69850000D03*
D11*
%TO.P,U1,9,GPIO2/SCK*%
%TO.N,Net-(U1-GPIO2{slash}SCK)*%
X138430000Y-67310000D03*
D12*
X139265000Y-67310000D03*
D11*
%TO.P,U1,10,GPIO4/MISO*%
%TO.N,Net-(U1-GPIO4{slash}MISO)*%
X138430000Y-64770000D03*
D12*
X139265000Y-64770000D03*
D11*
%TO.P,U1,11,GPIO3/MOSI*%
%TO.N,Net-(U1-GPIO3{slash}MOSI)*%
X138430000Y-62230000D03*
D12*
X139265000Y-62230000D03*
D11*
%TO.P,U1,12,3V3*%
%TO.N,unconnected-(U1-3V3-Pad12)*%
X138430000Y-59690000D03*
D12*
X139265000Y-59690000D03*
D11*
%TO.P,U1,13,GND*%
%TO.N,GND*%
X138430000Y-57150000D03*
D12*
X139265000Y-57150000D03*
D11*
%TO.P,U1,14,VBUS*%
%TO.N,+5V*%
X138430000Y-54610000D03*
D12*
X139265000Y-54610000D03*
%TD*%
D13*
%TO.P,SW2,1,1*%
%TO.N,GND*%
X135890000Y-80010000D03*
%TO.P,SW2,2,2*%
%TO.N,Net-(U1-GPIO2{slash}SCK)*%
X129540000Y-82550000D03*
%TD*%
D14*
%TO.P,SW5,A,A*%
%TO.N,Net-(U1-GPIO29{slash}ADC3{slash}A3)*%
X101970000Y-82590000D03*
D15*
%TO.P,SW5,B,B*%
%TO.N,Net-(U1-GPIO28{slash}ADC2{slash}A2)*%
X101970000Y-87590000D03*
%TO.P,SW5,C,C*%
%TO.N,GND*%
X101970000Y-85090000D03*
D16*
%TO.P,SW5,MP*%
%TO.N,N/C*%
X109470000Y-79490000D03*
X109470000Y-90690000D03*
D15*
%TO.P,SW5,S1,S1*%
%TO.N,GND*%
X116470000Y-87590000D03*
%TO.P,SW5,S2,S2*%
%TO.N,Net-(U1-GPIO27{slash}ADC1{slash}A1)*%
X116470000Y-82590000D03*
%TD*%
D13*
%TO.P,SW4,1,1*%
%TO.N,GND*%
X87630000Y-80010000D03*
%TO.P,SW4,2,2*%
%TO.N,Net-(U1-GPIO3{slash}MOSI)*%
X81280000Y-82550000D03*
%TD*%
%TO.P,SW1,1,1*%
%TO.N,GND*%
X111760000Y-57150000D03*
%TO.P,SW1,2,2*%
%TO.N,Net-(U1-GPIO1{slash}RX)*%
X105410000Y-59690000D03*
%TD*%
%TO.P,SW3,1,1*%
%TO.N,GND*%
X111760000Y-102870000D03*
%TO.P,SW3,2,2*%
%TO.N,Net-(U1-GPIO4{slash}MISO)*%
X105410000Y-105410000D03*
%TD*%
D17*
%TO.P,D2,1,DOUT*%
%TO.N,unconnected-(D2-DOUT-Pad1)*%
X115090000Y-74055000D03*
%TO.P,D2,2,VSS*%
%TO.N,GND*%
X115090000Y-75805000D03*
%TO.P,D2,3,DIN*%
%TO.N,Net-(D1-DOUT)*%
X118590000Y-75805000D03*
%TO.P,D2,4,VDD*%
%TO.N,+5V*%
X118590000Y-74055000D03*
%TD*%
%TO.P,D1,1,DOUT*%
%TO.N,Net-(D1-DOUT)*%
X99850000Y-74055000D03*
%TO.P,D1,2,VSS*%
%TO.N,GND*%
X99850000Y-75805000D03*
%TO.P,D1,3,DIN*%
%TO.N,Net-(D1-DIN)*%
X103350000Y-75805000D03*
%TO.P,D1,4,VDD*%
%TO.N,+5V*%
X103350000Y-74055000D03*
%TD*%
D18*
%TO.N,Net-(D1-DOUT)*%
X100330000Y-74879998D03*
X116840000Y-76200000D03*
%TO.N,Net-(D1-DIN)*%
X110490000Y-66040000D03*
%TO.N,+5V*%
X110490000Y-71120000D03*
X119380000Y-72390000D03*
%TO.N,Net-(U1-GPIO1{slash}RX)*%
X107950000Y-67310000D03*
%TO.N,Net-(U1-GPIO28{slash}ADC2{slash}A2)*%
X113030000Y-64770000D03*
%TO.N,Net-(U1-GPIO29{slash}ADC3{slash}A3)*%
X119380000Y-69850000D03*
%TO.N,Net-(U1-GPIO27{slash}ADC1{slash}A1)*%
X135890000Y-59690000D03*
%TD*%
D19*
%TO.N,Net-(D1-DOUT)*%
X118195000Y-76200000D02*
X118590000Y-75805000D01*
X99850000Y-74055000D02*
X99850000Y-74399998D01*
X116840000Y-76200000D02*
X118195000Y-76200000D01*
X99850000Y-74399998D02*
X100330000Y-74879998D01*
%TO.N,Net-(D1-DIN)*%
X103201000Y-73329000D02*
X110490000Y-66040000D01*
X103350000Y-75805000D02*
X102249000Y-74704000D01*
X102249000Y-73329000D02*
X103201000Y-73329000D01*
X102249000Y-74704000D02*
X102249000Y-73329000D01*
%TO.N,GND*%
X116470000Y-87590000D02*
X134174816Y-87590000D01*
X112825000Y-91235000D02*
X116470000Y-87590000D01*
X111760000Y-72475000D02*
X115090000Y-75805000D01*
X139700000Y-57150000D02*
X142240000Y-59690000D01*
X111760000Y-92300000D02*
X112825000Y-91235000D01*
X111760000Y-57150000D02*
X111760000Y-72475000D01*
X138430000Y-57150000D02*
X139700000Y-57150000D01*
X99850000Y-79220000D02*
X95885000Y-83185000D01*
X142240000Y-59690000D02*
X142240000Y-73660000D01*
X99850000Y-75805000D02*
X99850000Y-79220000D01*
X115090000Y-79220000D02*
X115090000Y-75805000D01*
X142240000Y-73660000D02*
X135890000Y-80010000D01*
X134174816Y-87590000D02*
X135890000Y-85874816D01*
X87630000Y-80010000D02*
X92710000Y-80010000D01*
X95885000Y-83185000D02*
X97790000Y-85090000D01*
X101970000Y-85090000D02*
X109220000Y-85090000D01*
X112825000Y-88695000D02*
X112825000Y-91235000D01*
X135890000Y-85874816D02*
X135890000Y-80010000D01*
X109220000Y-85090000D02*
X115090000Y-79220000D01*
X109220000Y-85090000D02*
X112825000Y-88695000D01*
X92710000Y-80010000D02*
X95885000Y-83185000D01*
X111760000Y-102870000D02*
X111760000Y-92300000D01*
X97790000Y-85090000D02*
X101970000Y-85090000D01*
%TO.N,+5V*%
X107555000Y-74055000D02*
X110490000Y-71120000D01*
X120766655Y-73776655D02*
X120488310Y-74055000D01*
X119380000Y-72390000D02*
X120766655Y-73776655D01*
X138430000Y-54610000D02*
X130603000Y-62437000D01*
X103350000Y-74055000D02*
X107555000Y-74055000D01*
X120488310Y-74055000D02*
X118590000Y-74055000D01*
X130603000Y-63940310D02*
X120766655Y-73776655D01*
X130603000Y-62437000D02*
X130603000Y-63940310D01*
%TO.N,Net-(U1-GPIO1{slash}RX)*%
X107950000Y-67310000D02*
X105410000Y-64770000D01*
X105410000Y-64770000D02*
X105410000Y-59690000D01*
%TO.N,Net-(U1-GPIO2{slash}SCK)*%
X129540000Y-76200000D02*
X138430000Y-67310000D01*
X129540000Y-82550000D02*
X129540000Y-76200000D01*
%TO.N,Net-(U1-GPIO28{slash}ADC2{slash}A2)*%
X119781000Y-59690000D02*
X114701000Y-64770000D01*
X123190000Y-59690000D02*
X119781000Y-59690000D01*
X114701000Y-64770000D02*
X113030000Y-64770000D01*
%TO.N,Net-(U1-GPIO29{slash}ADC3{slash}A3)*%
X123190000Y-62230000D02*
X122112370Y-62230000D01*
X122112370Y-62230000D02*
X119380000Y-64962370D01*
X119380000Y-64962370D02*
X119380000Y-69850000D01*
%TO.N,Net-(U1-GPIO27{slash}ADC1{slash}A1)*%
X135890000Y-63170000D02*
X135890000Y-59690000D01*
X116470000Y-82590000D02*
X135890000Y-63170000D01*
%TD*%
M02*
